<?xml version="1.0" encoding="UTF-8"?>
<svg id="_レイヤー_1" data-name=" レイヤー 1" xmlns="http://www.w3.org/2000/svg" xmlns:xlink="http://www.w3.org/1999/xlink" viewBox="0 0 168.76 88.68">
  <defs>
    <style>
      .cls-1 {
        fill: url(#_名称未設定グラデーション_12);
        stroke: #990095;
        stroke-miterlimit: 10;
        stroke-width: .97px;
      }
    </style>
    <linearGradient id="_名称未設定グラデーション_12" data-name="名称未設定グラデーション 12" x1="-377.5" y1="-324.63" x2="-203.25" y2="-324.63" gradientTransform="translate(171.73 -391.46) rotate(-30.66) scale(1 -1)" gradientUnits="userSpaceOnUse">
      <stop offset="0" stop-color="#ecf5ed"/>
      <stop offset=".45" stop-color="#f3b4ff"/>
      <stop offset="1" stop-color="#ff68ec"/>
    </linearGradient>
  </defs>
  <path class="cls-1" d="M141.57,28.73c.1-5.23-42.11-4.64-44.31-4.47,0,0,27.4-6.45,36.72-7.55,19.25-2.27,35.18-9.5,34.26-15.42-.88-5.67-125.98,20.27-130.99,22.93-4.76,2.52-21.86,9.22-28.67,16.08C2.19,46.72-1.68,57.14,1.78,62.11c3.36,4.83,55.43,28.93,58.7,25.8,2.54-2.43-8.94-16.47-8.8-16.35,9.65,7.83,24.55,15.29,28.26,12.19,3.71-3.1-1.1-11.95-10.75-19.77-2.14-1.73-4.33-3.26-6.49-4.57,0,0,31.96,14.04,34.99,10.48,2.72-3.2-21.3-20.63-20.16-20.42,16.29,2.95,43.03,6.44,44.52,1.26,1.27-4.44-17.63-12.45-30.38-15.78,3.33,.45,17.85,1.28,21.68,1.28,15.81,0,28.12-2.27,28.22-7.5ZM51.68,71.56c-.39-.32-.8-.64-1.21-.96l.14-.13c.35,.36,.7,.73,1.07,1.09Zm37.56-36.44l.76-.69c1.05,.46,2.23,.89,3.51,1.28-1.44-.23-2.87-.43-4.27-.59Z"/>
</svg>